<svg width="300" height="141" viewBox="0 0 300 141" fill="none" xmlns="http://www.w3.org/2000/svg">
<path d="M141.382 0.903107L143.953 0.919253C145.839 1.36803 147.776 1.66931 149.602 2.29169C156.894 4.77176 161.664 9.90681 164.836 16.5817C168.076 23.7058 169.71 31.4498 169.622 39.2696C169.686 46.1831 169.245 53.0967 168.91 60.0043C168.799 60.5695 168.875 61.1551 169.127 61.6737C169.378 62.1924 169.792 62.6163 170.305 62.8813C174.29 65.2432 178.221 67.6854 182.142 70.1442C185.442 71.983 188.399 74.3752 190.881 77.2157C193.194 80.1457 194.14 83.339 192.898 86.9623C192.046 89.4424 191.268 91.9405 190.525 94.4513C188.458 101.475 186.372 108.492 184.427 115.549C184.022 117.25 183.871 119.001 183.976 120.746C184.031 122.531 185.13 123.023 186.665 122.021C187.618 121.384 188.478 120.617 189.218 119.743C192.602 115.812 194.941 111.23 197.515 106.79C198.569 104.998 198.939 102.889 198.557 100.848C197.024 91.8179 198.375 82.5368 202.417 74.3105C205.095 68.9548 208.309 64.0019 213.275 60.3751C215.185 58.8365 217.534 57.9359 219.988 57.8015C223.704 57.6962 227.402 58.3653 230.843 59.7656C239.753 63.4125 245.521 73.3791 243.477 82.1692C241.284 91.6017 235.409 98.3604 226.735 102.817C224.205 104.156 221.294 104.604 218.475 104.091C217.306 103.879 216.158 103.552 214.906 103.256C214.741 104.478 214.56 105.635 214.432 106.799C213.629 112.345 213.709 117.983 214.669 123.505C214.958 124.887 215.432 126.223 216.078 127.48C216.244 127.922 216.513 128.319 216.863 128.639C217.213 128.958 217.633 129.19 218.091 129.317C218.548 129.444 219.029 129.461 219.494 129.368C219.959 129.274 220.395 129.072 220.767 128.779C221.711 128.264 222.561 127.595 223.282 126.799C225.42 124.367 227.425 121.823 229.286 119.175C234.912 110.402 239.911 101.246 244.247 91.7762C245.539 89.0847 247.059 86.4797 247.351 83.4021C247.543 81.7041 247.823 80.0168 248.187 78.3471C250.359 67.4395 252.577 56.5441 254.713 45.6341C255.758 41.3446 256.239 36.9379 256.143 32.5251C255.89 28.727 255.312 25.0188 251.671 22.3829C252.156 22.3829 252.423 22.3697 252.688 22.3921C260.434 23.0723 265.648 27.1053 268.504 34.0838C271.003 40.1965 271.307 46.5966 270.632 52.9905C269.528 63.4517 268.141 73.8817 266.921 84.3299C265.551 96.0217 264.161 107.714 262.917 119.419C262.379 123.54 262.445 127.717 263.115 131.819C263.318 132.864 263.714 133.861 264.284 134.761C264.849 135.649 265.68 135.505 266.164 134.563C266.455 134.029 266.68 133.462 266.834 132.874C268.036 127.703 269.352 122.553 270.355 117.341C271.572 111.006 272.582 104.629 273.558 98.2503C274.682 90.9353 275.486 83.5658 276.77 76.2838C278.609 65.8557 280.79 55.4902 282.754 45.0846C283.584 40.6842 284.396 36.2583 283.94 31.7304C283.591 28.2678 282.872 24.9374 279.568 22.6037C279.791 22.5742 280.016 22.5573 280.241 22.553C284.092 22.6961 287.794 24.0753 290.792 26.4852C294.722 29.6739 296.688 33.9529 297.744 38.6733C298.201 40.7094 298.433 42.7902 298.768 44.8499L298.816 52.1555C298.749 52.6763 298.668 53.1945 298.615 53.7165C297.903 60.7446 297.399 67.8011 296.441 74.7938C294.889 86.1147 292.889 97.373 291.385 108.7C290.651 114.351 290.279 120.043 290.272 125.742C290.252 131.443 291.892 136.746 296.581 140.733C296.611 140.758 296.574 140.859 296.561 141C296.097 140.934 295.633 140.898 295.183 140.799C290.445 139.693 286.162 137.166 282.911 133.562C278.845 129.105 276.025 123.664 274.733 117.783C274.668 117.524 274.548 117.278 274.377 116.823C273.758 119.627 273.231 122.193 272.619 124.735C271.727 129.089 270.33 133.325 268.454 137.357C266.544 141.136 264.742 141.686 260.874 139.749C257.288 137.845 254.311 134.977 252.282 131.471C248.439 125.33 246.732 118.556 245.924 111.528C245.686 109.511 245.561 107.484 245.379 105.399C245.235 105.51 245.155 105.541 245.132 105.595C244.902 106.157 244.677 106.72 244.457 107.286C241.443 115.568 237.744 123.587 233.399 131.26C231.876 134.085 229.865 136.621 227.458 138.751C226.831 139.298 226.09 139.701 225.289 139.931C224.488 140.162 223.645 140.215 222.821 140.086C220.382 139.721 218.068 138.777 216.072 137.335C211.748 134.161 208.243 130.011 205.845 125.226C204.748 123.208 203.817 121.108 202.748 118.919C202.563 119.558 202.423 120.1 202.247 120.637C201.165 123.913 200.18 127.227 198.957 130.451C197.946 133.417 196.298 136.127 194.127 138.393C193.247 139.426 192.017 140.101 190.67 140.29C189.323 140.479 187.953 140.17 186.82 139.421C185.958 138.972 185.135 138.449 184.361 137.861C180.09 134.443 176.447 130.314 173.593 125.657C171.348 122.188 169.189 118.615 168.519 114.53C168.194 111.928 168.106 109.301 168.255 106.683C168.219 98.4295 169.275 90.2074 171.398 82.2291C172.013 80.1187 172.859 78.0747 173.479 75.9701C173.675 75.3052 173.793 74.2645 173.418 73.844C171.861 72.1139 170.103 70.5575 168.22 68.7458C168.113 69.4544 168.047 69.8207 168.005 70.188C167.664 73.0921 167.412 76.0115 166.976 78.899C165.485 88.6551 164.057 98.4239 162.349 108.142C161.06 116.125 159.102 123.986 156.495 131.644C155.932 133.216 155.241 134.74 154.428 136.199C153.343 138.155 152.551 138.561 150.447 137.734C148.42 136.962 146.501 135.933 144.739 134.672C141.061 131.815 137.892 128.361 135.365 124.456C135.145 124.139 134.903 123.835 134.578 123.402C134.256 124.377 134.013 125.134 133.758 125.882C132.654 129.604 130.942 133.119 128.69 136.286C126.09 139.673 123.496 140.538 119.317 139.417C115.826 138.376 112.681 136.418 110.214 133.749C105.23 128.511 101.442 122.264 99.1095 115.434C98.9494 115.008 98.7832 114.584 98.6194 114.157C98.3914 114.512 98.2347 114.907 98.158 115.32C97.0972 119.473 96.1408 123.659 94.9354 127.768C94.0722 131.286 92.488 134.589 90.2821 137.469C88.5984 139.482 87.095 139.798 84.9356 138.338C76.9552 132.939 71.0749 126.116 69.4103 116.447C68.2672 108.837 67.8698 101.135 68.2238 93.4485C68.3116 89.8063 68.4302 86.1654 68.5346 82.5244C67.94 84.2734 67.4662 86.0612 67.1166 87.8746C64.3414 100.629 61.5627 113.384 57.7089 125.876C56.966 128.146 56.0861 130.37 55.0738 132.535C54.4603 133.903 53.904 134.037 52.4493 133.479C51.7191 133.207 51.0192 132.861 50.3611 132.445C44.9766 128.817 40.4025 124.123 36.9252 118.655C35.3407 116.561 34.3564 114.079 34.0774 111.473C33.7499 105.778 33.1747 100.061 33.3657 94.3838C33.7774 82.4181 34.6112 70.4722 35.2923 58.5206C35.405 56.5247 35.6139 54.5373 35.8097 52.1647C35.2114 52.5121 34.6543 52.9253 34.1487 53.3965C33.4173 54.2237 32.7956 55.141 32.2988 56.1258C31.0008 59.0333 29.6626 61.9423 28.6458 64.9514C25.0779 75.9723 22.4626 87.2763 20.8289 98.7405C18.841 111.091 17.8393 123.579 17.8331 136.087C17.8415 136.467 17.8165 136.846 17.7584 137.222C17.5306 138.511 16.8091 139.084 15.5491 138.685C14.3203 138.325 13.1569 137.772 12.1022 137.048C7.01453 133.353 2.64459 129.028 0.0295466 123.26L0 118.694C0.064071 118.252 0.14222 117.81 0.192053 117.365C0.893275 111.105 1.30981 104.79 2.33969 98.5871C5.23296 81.0429 10.1861 63.8978 17.0974 47.5036C19.9301 40.4007 23.5819 33.6489 27.9789 27.3842C29.8892 24.558 32.3313 22.1269 35.1703 20.225C36.2089 19.5376 37.3974 19.1069 38.6369 18.9691C39.8764 18.8313 41.1309 18.9904 42.2963 19.4327C46.3809 20.8079 49.9583 23.3689 52.5678 26.7856C55.7387 31.0676 57.6016 36.1689 57.9331 41.4782C58.3833 48.2776 58.1519 55.1045 57.2425 61.8583C55.7559 75.6758 53.9679 89.4676 52.4053 103.28C51.958 107.237 51.8369 111.234 51.6162 115.215C51.6527 115.816 51.7602 116.411 51.9366 116.987L52.3175 116.964C52.6735 115.237 53.0187 113.504 53.4079 111.782C55.7809 101.271 58.072 90.7349 60.5755 80.2501C63.4318 67.4708 67.0221 54.8648 71.3288 42.4948C72.7869 38.5867 74.5204 34.7861 76.5162 31.1209C78.0397 28.2771 79.4397 28.0146 82.5127 29.3114C86.4545 31.0234 89.9038 33.6889 92.547 37.0656C93.5238 38.2231 94.2285 39.5832 94.6101 41.0463C94.9916 42.5093 95.0404 44.0386 94.7526 45.5228C92.9669 56.5414 91.2051 67.5648 89.6271 78.6152C88.017 89.8925 86.5848 101.196 85.1954 112.504C84.9904 114.967 84.9658 117.441 85.1218 119.907C85.1361 120.463 85.6202 121.015 85.8871 121.569C86.4685 121.333 87.0041 120.998 87.4699 120.578C88.1843 119.641 88.7961 118.63 89.2948 117.563C91.5795 112.302 93.4258 106.864 94.8154 101.302C95.1556 100.378 95.3432 99.4053 95.3707 98.4216C94.8842 91.58 95.6756 84.7079 97.7046 78.1534C99.7217 71.7607 102.766 65.9472 107.892 61.3768C109.564 59.7862 111.571 58.5857 113.767 57.8632C115.963 57.1407 118.293 56.9141 120.588 57.1995C123.819 57.4759 126.958 58.4177 129.804 59.9657C132.65 61.5137 135.142 63.6337 137.121 66.1912C137.572 66.7539 138.218 67.1289 138.932 67.2425C141.372 67.7067 143.766 68.3824 146.088 69.2619C148.24 70.0902 150.043 71.626 151.198 73.6145C152.353 75.603 152.79 77.9244 152.437 80.1941C152.236 82.0837 151.934 83.9582 151.565 85.8182C149.864 94.3816 148.03 102.919 146.45 111.505C145.987 114.656 145.717 117.833 145.642 121.018C145.592 121.855 145.686 122.933 146.709 123.24C147.821 123.572 148.463 122.64 148.859 121.865C150.018 119.733 151.034 117.527 151.903 115.263C154.603 107.394 156.641 99.3146 157.994 91.109C159.537 82.2859 160.773 73.4085 162.17 64.5582C162.236 64.2277 162.208 63.8854 162.09 63.5698C161.972 63.2541 161.767 62.9774 161.499 62.7711C154.586 56.4977 148.51 49.3684 143.418 41.5572C138.253 33.3481 134.703 24.5996 134.413 14.9025C134.291 12.1729 134.866 9.45692 136.085 7.00871C137.304 4.56051 139.126 2.46002 141.382 0.903107ZM133.657 70.4533C133.162 70.3635 132.754 70.2635 132.341 70.2174C130.488 70.0105 128.612 70.2051 126.842 70.7883C125.071 71.3716 123.449 72.3295 122.086 73.5961C118.01 77.1733 115.767 81.8559 114.18 86.8562C111.276 96.4507 110.327 106.526 111.388 116.491C111.698 118.905 112.24 121.284 113.008 123.594C113.402 124.935 114.125 125.094 115.144 124.094C116.405 122.88 117.539 121.54 118.527 120.096C122.785 113.346 126.557 106.304 129.815 99.023C129.972 98.6373 130.058 98.226 130.069 97.8097C130.599 88.6166 131.798 79.4737 133.657 70.4533ZM162.573 57.1972L163 56.9417C163.119 55.4301 163.258 53.9209 163.366 52.4081C164.006 43.4609 164.48 34.5029 163.26 25.551C162.789 22.8928 162.146 20.2681 161.333 17.693C161.095 17.0016 160.742 16.3547 160.289 15.7796C159.927 15.1554 159.417 14.6293 158.803 14.2474C158.189 13.8656 157.49 13.6395 156.768 13.5895C156.045 13.5394 155.322 13.6667 154.661 13.9603C153.999 14.2538 153.421 14.705 152.975 15.2733C151.582 16.8577 150.68 18.8102 150.379 20.8945C148.57 31.5234 150.407 41.4807 156.822 50.4774C158.522 52.863 160.645 54.9651 162.573 57.1972ZM215.966 97.5866C216.673 97.6063 217.381 97.5448 218.074 97.4026C219.74 96.9427 221.347 96.2934 222.864 95.4679C228.92 91.5092 233.495 85.6722 235.879 78.8621C236.348 77.543 236.595 76.156 236.612 74.7569C236.658 72.9559 235.725 72.2005 233.883 72.2773C232.261 72.3792 230.678 72.8148 229.234 73.5563C227.79 74.2978 226.516 75.3292 225.492 76.5854C220.166 82.5093 217.957 89.8239 215.966 97.5889V97.5866Z" fill="white"/>
<path d="M142.554 0L145.126 0.0161468C147.012 0.464936 148.949 0.766227 150.775 1.38863C158.068 3.86878 162.838 9.00399 166.01 15.6791C169.251 22.8033 170.885 30.5477 170.796 38.3678C170.86 45.2815 170.419 52.1954 170.085 59.1032C169.973 59.6684 170.049 60.2545 170.301 60.7732C170.552 61.2919 170.966 61.7153 171.48 61.9802C175.464 64.3422 179.396 66.7845 183.317 69.2445C186.618 71.0826 189.575 73.4745 192.058 76.3151C194.37 79.2452 195.316 82.4392 194.075 86.0626C193.223 88.5428 192.446 91.0404 191.702 93.5524C189.635 100.575 187.549 107.593 185.604 114.651C185.199 116.351 185.047 118.102 185.153 119.847C185.208 121.632 186.306 122.124 187.842 121.123C188.795 120.485 189.654 119.718 190.395 118.844C193.779 114.913 196.118 110.332 198.693 105.891C199.747 104.099 200.117 101.989 199.735 99.9477C198.202 90.9177 199.552 81.6364 203.595 73.4098C206.273 68.0539 209.487 63.1022 214.453 59.4682C216.364 57.9298 218.713 57.0291 221.167 56.8945C224.883 56.7892 228.581 57.4583 232.023 58.8587C240.933 62.5057 246.702 72.4738 244.659 81.263C242.465 90.6958 236.59 97.4547 227.915 101.912C225.384 103.25 222.473 103.699 219.654 103.185C218.485 102.974 217.337 102.647 216.085 102.35C215.921 103.573 215.738 104.73 215.61 105.893C214.807 111.44 214.887 117.078 215.847 122.6C216.136 123.982 216.609 125.32 217.256 126.576C217.422 127.019 217.691 127.416 218.041 127.735C218.39 128.055 218.811 128.287 219.268 128.413C219.726 128.54 220.207 128.558 220.672 128.464C221.137 128.371 221.573 128.169 221.945 127.875C222.889 127.36 223.74 126.691 224.461 125.895C226.599 123.464 228.603 120.919 230.465 118.272C236.09 109.498 241.09 100.342 245.427 90.8715C246.72 88.1799 248.24 85.5748 248.531 82.497C248.723 80.7991 249.003 79.1117 249.367 77.4419C251.539 66.5352 253.758 55.6382 255.894 44.7279C256.939 40.4382 257.42 36.0314 257.323 31.6184C257.071 27.8202 256.493 24.1119 252.851 21.477C253.337 21.477 253.603 21.4627 253.868 21.4851C261.615 22.1654 266.829 26.1984 269.685 33.1771C272.184 39.2889 272.489 45.6893 271.814 52.0833C270.71 62.546 269.322 72.9752 268.102 83.4238C266.732 95.1159 265.342 106.809 264.098 118.515C263.559 122.636 263.626 126.813 264.296 130.916C264.499 131.96 264.895 132.957 265.466 133.857C266.03 134.745 266.861 134.601 267.345 133.66C267.636 133.126 267.862 132.559 268.016 131.971C269.218 126.799 270.535 121.649 271.536 116.437C272.754 110.102 273.764 103.725 274.74 97.3458C275.865 90.0305 276.67 82.6608 277.953 75.3786C279.791 64.9501 281.972 54.5843 283.936 44.1795C284.767 39.7778 285.578 35.353 285.123 30.8237C284.775 27.361 284.055 24.0316 280.75 21.6967C280.973 21.6672 281.198 21.6503 281.423 21.646C285.274 21.7891 288.976 23.1683 291.975 25.5783C295.905 28.7671 297.871 33.0475 298.929 37.7669C299.384 39.8029 299.617 41.8839 299.951 43.9436L300 51.2495C299.932 51.7703 299.852 52.2885 299.798 52.8105C299.086 59.8388 298.582 66.8956 297.625 73.8885C296.074 85.2098 294.072 96.4685 292.568 107.796C291.834 113.447 291.462 119.14 291.455 124.838C291.435 130.54 293.076 135.844 297.764 139.83C297.795 139.855 297.757 139.956 297.744 140.097C297.28 140.031 296.816 139.995 296.367 139.896C291.628 138.79 287.345 136.263 284.094 132.658C280.027 128.201 277.207 122.76 275.915 116.879C275.85 116.62 275.73 116.375 275.559 115.92C274.939 118.724 274.414 121.289 273.8 123.833C272.909 128.187 271.511 132.423 269.635 136.455C267.725 140.234 265.924 140.784 262.055 138.848C258.469 136.943 255.492 134.075 253.462 130.57C249.619 124.428 247.911 117.654 247.103 110.625C246.866 108.608 246.741 106.58 246.559 104.496C246.415 104.607 246.334 104.638 246.312 104.692C246.082 105.253 245.857 105.817 245.637 106.383C242.623 114.666 238.924 122.685 234.578 130.358C233.055 133.183 231.044 135.719 228.638 137.849C228.01 138.396 227.269 138.799 226.467 139.029C225.666 139.26 224.824 139.314 223.999 139.185C221.561 138.819 219.246 137.875 217.25 136.433C212.926 133.259 209.421 129.109 207.022 124.324C205.925 122.307 204.994 120.206 203.925 118.016C203.739 118.655 203.601 119.197 203.424 119.735C202.342 123.011 201.358 126.325 200.134 129.549C199.122 132.514 197.474 135.225 195.303 137.491C194.423 138.524 193.193 139.199 191.846 139.388C190.499 139.577 189.129 139.268 187.996 138.519C187.134 138.07 186.311 137.548 185.537 136.96C181.266 133.542 177.622 129.412 174.768 124.755C172.523 121.285 170.363 117.713 169.693 113.628C169.368 111.025 169.28 108.398 169.43 105.78C169.393 97.526 170.45 89.3036 172.574 81.3252C173.187 79.2148 174.033 77.1706 174.654 75.066C174.85 74.4011 174.967 73.3615 174.592 72.9398C173.035 71.2096 171.277 69.6532 169.394 67.8415C169.287 68.5501 169.222 68.9165 169.179 69.2837C168.84 72.1879 168.592 75.1073 168.15 77.9961C166.659 87.7514 165.231 97.5205 163.523 107.239C162.233 115.222 160.274 123.084 157.667 130.742C157.104 132.314 156.413 133.838 155.6 135.297C154.515 137.253 153.723 137.653 151.619 136.832C149.592 136.06 147.673 135.031 145.91 133.77C142.232 130.913 139.063 127.459 136.536 123.554C136.315 123.236 136.073 122.933 135.748 122.5C135.427 123.475 135.183 124.233 134.928 124.979C133.825 128.701 132.112 132.217 129.86 135.384C127.26 138.771 124.666 139.636 120.486 138.517C116.995 137.476 113.85 135.517 111.383 132.847C106.399 127.61 102.611 121.362 100.278 114.532C100.117 114.106 99.9512 113.682 99.7875 113.257C99.5594 113.611 99.4027 114.005 99.326 114.419C98.2652 118.571 97.3147 122.758 96.1032 126.867C95.2396 130.385 93.6554 133.687 91.4495 136.568C89.7658 138.575 88.2624 138.898 86.1099 137.437C78.1277 132.038 72.2468 125.215 70.582 115.546C69.4396 107.936 69.0422 100.233 69.3954 92.5473C69.4832 88.9038 69.6021 85.2628 69.7077 81.6217C69.1106 83.3705 68.6347 85.1583 68.2836 86.972C65.5082 99.7271 62.7292 112.482 58.8752 124.975C58.1329 127.245 57.2528 129.469 56.2399 131.634C55.6264 133.002 55.07 133.136 53.6152 132.578C52.885 132.306 52.1852 131.959 51.5268 131.544C46.1492 127.917 41.5805 123.225 38.1065 117.762C36.5219 115.669 35.5378 113.187 35.2588 110.58C34.9313 104.886 34.3557 99.1685 34.5467 93.4913C34.9585 81.5252 35.7927 69.5789 36.4738 57.6269C36.5865 55.6321 36.7954 53.6435 36.9912 51.2708C36.3929 51.6184 35.8356 52.0315 35.3298 52.5026C34.599 53.3303 33.9776 54.2476 33.4801 55.232C32.182 58.1397 30.8434 61.0481 29.8265 64.0585C26.2582 75.0793 23.6431 86.3839 22.0094 97.8481C20.022 110.199 19.02 122.688 19.0131 135.197C19.022 135.576 18.997 135.956 18.9383 136.331C18.7105 137.62 17.989 138.193 16.7288 137.794C15.5019 137.433 14.3404 136.881 13.2879 136.157C8.1986 132.462 3.82838 128.136 1.21314 122.368L1.18359 117.803C1.24767 117.36 1.32582 116.918 1.37566 116.473C2.07693 110.213 2.49349 103.897 3.52345 97.6941C6.41695 80.149 11.3704 63.0029 18.2822 46.6078C21.1152 39.5047 24.7672 32.7527 29.1645 26.4877C31.0755 23.662 33.5175 21.2309 36.3562 19.3283C37.395 18.6407 38.584 18.2102 39.8238 18.0723C41.0636 17.9345 42.3185 18.0935 43.4841 18.536C47.5685 19.9115 51.1458 22.4725 53.7552 25.8891C56.9265 30.1712 58.7896 35.2727 59.1209 40.5822C59.5709 47.3818 59.3396 54.2095 58.4302 60.9635C56.9435 74.7815 55.1554 88.5732 53.5927 102.386C53.1453 106.343 53.0254 110.341 52.8035 114.322C52.84 114.923 52.9475 115.517 53.1239 116.093L53.5049 116.071C53.8609 114.343 54.2061 112.611 54.5953 110.889C56.9685 100.378 59.261 89.8417 61.7635 79.3553C64.6201 66.5757 68.2107 53.9699 72.5175 41.5994C73.9757 37.691 75.7098 33.8896 77.7065 30.2246C79.2289 27.3807 80.629 27.1188 83.7022 28.4155C87.6441 30.1278 91.0937 32.7934 93.7372 36.1701C94.7141 37.3275 95.4188 38.6871 95.8004 40.1502C96.1821 41.6134 96.2308 43.1433 95.943 44.6275C94.1631 55.6465 92.395 66.6713 90.8168 77.7222C89.2066 88.9986 87.7758 100.302 86.3851 111.61C86.1801 114.073 86.1555 116.548 86.3115 119.014C86.3258 119.571 86.8099 120.122 87.0769 120.676C87.6583 120.439 88.1939 120.104 88.6598 119.685C89.3743 118.747 89.9862 117.737 90.4848 116.67C92.7698 111.409 94.6162 105.97 96.0058 100.408C96.3461 99.4845 96.5337 98.5117 96.5612 97.528C96.0747 90.6863 96.8661 83.8139 98.8952 77.2591C100.912 70.8662 103.957 65.0532 109.083 60.4814C110.755 58.8908 112.762 57.6903 114.958 56.9678C117.155 56.2452 119.485 56.0186 121.78 56.304C125.012 56.5806 128.15 57.5229 130.997 59.0709C133.843 60.6189 136.335 62.7391 138.315 65.2966C138.766 65.859 139.412 66.2337 140.126 66.3485C142.566 66.8114 144.961 67.4871 147.282 68.368C149.434 69.1959 151.237 70.7317 152.392 72.7201C153.547 74.7085 153.984 77.0303 153.631 79.3C153.431 81.1896 153.128 83.0648 152.759 84.9237C151.059 93.4873 149.224 102.025 147.644 110.611C147.181 113.763 146.911 116.94 146.836 120.124C146.786 120.962 146.881 122.04 147.904 122.347C149.015 122.679 149.657 121.747 150.054 120.972C151.212 118.84 152.229 116.634 153.097 114.369C155.799 106.5 157.837 98.4207 159.189 90.2147C160.732 81.3912 161.968 72.5135 163.365 63.6629C163.431 63.3325 163.403 62.9902 163.285 62.6745C163.166 62.3588 162.962 62.0827 162.694 61.8764C155.782 55.6024 149.705 48.4723 144.612 40.6612C139.447 32.4531 135.898 23.703 135.607 14.0056C135.481 11.277 136.053 8.56087 137.268 6.11158C138.483 3.66228 140.301 1.55985 142.554 0ZM134.83 69.5531C134.334 69.4633 133.926 69.3639 133.513 69.3166C131.66 69.1095 129.783 69.3042 128.013 69.8875C126.243 70.4708 124.62 71.4286 123.257 72.6953C119.181 76.2727 116.938 80.9555 115.352 85.9559C112.447 95.5507 111.498 105.627 112.559 115.592C112.868 118.006 113.411 120.384 114.179 122.695C114.573 124.036 115.295 124.195 116.314 123.195C117.576 121.981 118.709 120.641 119.697 119.197C123.956 112.447 127.728 105.404 130.986 98.1231C131.144 97.7377 131.23 97.3274 131.24 96.9116C131.77 87.7176 132.97 78.5741 134.83 69.5531ZM163.747 56.2959L164.175 56.0405C164.294 54.5299 164.432 53.0196 164.541 51.5067C165.18 42.5604 165.654 33.6015 164.434 24.6493C163.966 21.9891 163.324 19.3618 162.513 16.7846C162.275 16.0935 161.922 15.447 161.469 14.8724C161.107 14.2481 160.597 13.7222 159.983 13.3402C159.369 12.9582 158.67 12.7318 157.947 12.6816C157.225 12.6315 156.501 12.759 155.84 13.0524C155.179 13.3459 154.6 13.7966 154.155 14.3649C152.761 15.9489 151.859 17.9017 151.56 19.9863C149.749 30.6155 151.586 40.5726 158.001 49.5696C159.696 51.9612 161.819 54.0638 163.747 56.2959ZM217.143 96.6867C217.851 96.7061 218.558 96.6446 219.252 96.5027C220.918 96.0428 222.525 95.3935 224.042 94.568C230.099 90.6096 234.674 84.7722 237.058 77.9615C237.527 76.6426 237.775 75.256 237.791 73.8568C237.837 72.0557 236.905 71.2997 235.062 71.3765C233.44 71.4785 231.857 71.914 230.412 72.6555C228.968 73.3971 227.694 74.4285 226.67 75.6848C221.344 81.6088 219.134 88.9243 217.143 96.6895V96.6867Z" fill="url(#paint0_linear_4_32)"/>
<defs>
<linearGradient id="paint0_linear_4_32" x1="8.35519" y1="80.976" x2="304.183" y2="80.976" gradientUnits="userSpaceOnUse">
<stop offset="0.028" stop-color="#00FFFF"/>
<stop offset="0.182" stop-color="#2FCFFF"/>
<stop offset="0.483" stop-color="#8777FF"/>
<stop offset="0.729" stop-color="#C737FF"/>
<stop offset="0.907" stop-color="#EF0FFF"/>
<stop offset="0.999" stop-color="#FF00FF"/>
</linearGradient>
</defs>
</svg>
